# AST/ASF file generated using VICON BodyLanguage
# -----------------------------------------------
:version 1.10
:name VICON
:units
  mass 1.0
  length 0.45
  angle deg
:documentation
   .ast/.asf automatically generated from VICON data using
   VICON BodyBuilder and BodyLanguage model FoxedUp or BRILLIANT.MOD
:root
   order TX TY TZ RX RY RZ
   axis XYZ
   position 0 0 0  
   orientation 0 0 0 
:bonedata
  begin
     id 1 
     name lhipjoint
     direction 0.584852 -0.759097 0.285867 
     length 2.43633 
     axis 0 0 0  XYZ
  end
  begin
     id 2 
     name lfemur
     direction 0.34202 -0.939693 0  
     length 7.14704  
     axis 0 0 20  XYZ
    dof rx ry rz
    limits (-160.0 20.0)
           (-70.0 70.0)
           (-60.0 70.0)
  end
  begin
     id 3 
     name ltibia
     direction 0.342022 -0.939692 0   
     length 7.68483   
     axis 0 0 20   XYZ
    dof rx
    limits (-10.0 170.0)
  end
  begin
     id 4 
     name lfoot
     direction 0.0999605 -0.274639 0.956337   
     length 2.40452   
     axis -90 7.62852e-016 20   XYZ
    dof rx rz
    limits (-45.0 90.0)
           (-70.0 20.0)
  end
  begin
     id 5 
     name ltoes
     direction 1.53468e-011 -4.21881e-011 1   
     length 1.19837   
     axis -90 7.62852e-016 20   XYZ
    dof rx
    limits (-90.0 20.0)
  end
  begin
     id 6 
     name rhipjoint
     direction -0.569886 -0.769002 0.289597   
     length 2.40495  
     axis 0 0 0  XYZ 
  end
  begin
     id 7 
     name rfemur
     direction -0.34202 -0.939693 0   
     length 7.45086   
     axis 0 0 -20   XYZ
    dof rx ry rz
    limits (-160.0 20.0)
           (-70.0 70.0)
           (-70.0 60.0)
  end
  begin
     id 8 
     name rtibia
     direction -0.34202 -0.939693 0   
     length 7.76831   
     axis 0 0 -20   XYZ
    dof rx
    limits (-10.0 170.0)
 end
 begin
     id 9 
     name rfoot
     direction -0.0798572 -0.219406 0.97236   
     length 2.35911  
     axis -90 -7.62852e-016 -20   XYZ
    dof rx rz
    limits (-45.0 90.0)
           (-20.0 70.0)
  end
  begin
     id 10 
     name rtoes
     direction -1.53469e-011 -4.21728e-011 1   
     length 1.18261   
     axis -90 -7.62852e-016 -20   XYZ
    dof rx
    limits (-90.0 20.0)
  end
  begin
     id 11 
     name lowerback
     direction 0.0242088 0.999437 0.0232389   
     length 2.1561   
     axis 0 0 0   XYZ
    dof rx ry rz
    limits (-20.0 45.0)
           (-30.0 30.0)
           (-30.0 30.0)
  end
  begin
     id 12 
     name upperback
     direction -0.0356893 0.999013 -0.0264323   
     length 2.14431   
     axis 0 0 0   XYZ
    dof rx ry rz
    limits (-20.0 45.0)
           (-30.0 30.0)
           (-30.0 30.0)
  end
  begin
     id 13 
     name thorax
     direction -0.0472163 0.998194 -0.0371284   
     length 2.16169   
     axis 0 0 0   XYZ
    dof rx ry rz
    limits (-20.0 45.0)
           (-30.0 30.0)
           (-30.0 30.0)
  end
  begin
     id 14 
     name lowerneck
     direction 0.00863244 0.999921 0.00911972   
     length 1.58651   
     axis 0 0 0   XYZ
    dof rx ry rz
    limits (-20.0 45.0)
           (-30.0 30.0)
           (-30.0 30.0)
  end
  begin
     id 15 
     name upperneck
     direction 0.149523 0.979068 -0.138086   
     length 1.57486   
     axis 0 0 0   XYZ
    dof rx ry rz
    limits (-20.0 45.0)
           (-30.0 30.0)
           (-30.0 30.0)
  end
  begin
     id 16
     name head
     direction 0.0445219 0.997708 -0.0509576  
     length 1.6019  
     axis 0 0 0   XYZ
    dof rx ry rz
    limits (-20.0 45.0)
           (-30.0 30.0)
           (-30.0 30.0)
  end
  begin
     id 17 
     name lclavicle
     direction 0.911271 0.381667 -0.154644  
     length 3.80848  
     axis 0 0 0   XYZ
    dof ry rz
    limits (-20.0 10.0)
           (0.0 20.0)
  end
  begin
     id 18 
     name lhumerus
     direction 1 -4.49003e-011 2.1308e-027   
     length 5.19069   
     axis 180 -30 -90   XYZ
    dof rx ry rz
    limits (-60.0 90.0)
           (-90.0 90.0)
           (-90.0 90.0)
  end
  begin
     id 19
     name lradius
     direction 1 -4.48914e-011 4.01554e-027   
     length 3.30016   
     axis 180 -30 -90   XYZ
    dof rx
    limits (-10.0 170.0)
  end
  begin
     id 20
     name lwrist
     direction 1 -4.49003e-011 1.1934e-026   
     length 1.65008   
     axis -8.46377e-015 90 90   XYZ
    dof ry
    limits (-180.0 0.0)
 end
  begin
     id 21 
     name lhand
     direction 1 -4.49034e-011 2.38659e-026   
     length 0.707698   
     axis -1.52313e-014 90 90   XYZ
    dof rx rz
    limits (-90.0 90.0)
           (-45.0 45.0)
  end
  begin
     id 22 
     name lfingers
     direction 1 -4.48691e-011 4.77775e-026   
     length 0.570564   
     axis -3.04623e-014 90 90   XYZ
    dof rx
    limits (0.0 90.0)
  end
  begin
     id 23
     name lthumb
     direction 0.707107 -6.34832e-011 0.707107   
     length 0.819219   
     axis -90 45 -1.62303e-014   XYZ
    dof rx rz
    limits (-45.0 45.0)
           (-45.0 45.0)
  end
  begin
     id 24 
     name rclavicle
     direction -0.815579 0.573708 -0.0754329   
     length 3.54371  
     axis 0 0 0   XYZ 
    dof ry rz
    limits (-10.0 20.0)
           (-20.0 0.0)
  end
  begin
     id 25 
     name rhumerus
     direction -1 -4.48956e-011 3.05351e-028  
     length 5.23924   
     axis 180 30 90   XYZ
    dof rx ry rz
    limits (-90.0 60.0)
           (-90.0 90.0)
           (-90.0 90.0)
  end
  begin
     id 26 
     name rradius
     direction -1 -4.49013e-011 3.53849e-027   
     length 3.32953   
     axis 180 30 90   XYZ
    dof rx
    limits (-10.0 170.0)
  end
  begin
     id 27 
     name rwrist
     direction -1 -4.48901e-011 1.19374e-026   
     length 1.66477   
     axis -8.46377e-015 -90 -90   XYZ
    dof ry
    limits (-180.0 0.0)
  end
  begin
     id 28
     name rhand
     direction -1 -4.48877e-011 2.38764e-026   
     length 0.607414   
     axis -1.52313e-014 -90 -90   XYZ
    dof rx rz
    limits (-90.0 90.0)
           (-45.0 45.0)
  end
  begin
     id 29
     name rfingers
     direction -1 -4.48882e-011 4.77521e-026   
     length 0.489712   
     axis -3.04623e-014 -90 -90   XYZ
    dof rx
    limits (0.0 90.0)
  end
  begin
     id 30
     name rthumb
     direction -0.707107 -6.34974e-011 0.707107   
     length 0.703132   
     axis -90 -45 1.62303e-014   XYZ
    dof rx rz
    limits (-45.0 45.0)
           (-45.0 45.0)
  end
:hierarchy
  begin
    root lhipjoint rhipjoint lowerback
    lhipjoint lfemur
    lfemur ltibia
    ltibia lfoot
    lfoot ltoes
    rhipjoint rfemur
    rfemur rtibia
    rtibia rfoot
    rfoot rtoes
    lowerback upperback
    upperback thorax
    thorax lowerneck lclavicle rclavicle
    lowerneck upperneck
    upperneck head
    lclavicle lhumerus
    lhumerus lradius
    lradius lwrist
    lwrist lhand lthumb
    lhand lfingers
    rclavicle rhumerus
    rhumerus rradius
    rradius rwrist
    rwrist rhand rthumb
    rhand rfingers
  end

#!OML:ASF E:\VariousWalksJay\Project 1\Capture day 1\Session 1\Actor2.ASF
:FULLY-SPECIFIED
:DEGREES
360
root 12.3278 16.9352 0.220504 20.2482 -36.539 3.17906
lowerback 19.9508 -5.56951 5.081
upperback 14.4304 -6.84686 -2.4332
thorax 3.79508 -3.11386 -4.30901
lowerneck 4.52017 1.95395 1.67915
upperneck -18.8315 3.04971 1.55131
head -6.46067 1.17542 0.0122288
rclavicle 7.31528e-014 -2.90226e-014
rhumerus -49.5755 15.0988 -89.8091
rradius 68.041
rwrist 11.8137
rhand -48.7419 13.0589
rfingers 7.12502
rthumb -21.3811 -15.7814
lclavicle 7.31528e-014 -2.90226e-014
lhumerus 10.6654 -52.3322 73.5679
lradius 92.1013
lwrist 30.2456
lhand -33.6419 -1.36399
lfingers 7.12502
lthumb -6.83386 28.5057
rfemur -56.4799 -4.19585 26.5605
rtibia 27.9521
rfoot -3.09694 -7.96802
rtoes -2.23576
lfemur -14.4151 10.2439 -30.4935
ltibia 32.6017
lfoot -19.2542 -1.88986
ltoes -23.1609
361
root 12.2423 16.9644 0.321889 20.4347 -36.672 3.05477
lowerback 19.9007 -5.55656 5.07144
upperback 14.3934 -6.83364 -2.42131
thorax 3.78143 -3.10962 -4.29523
lowerneck 4.47714 2.00294 1.62955
upperneck -18.816 3.11261 1.56159
head -6.44904 1.20934 0.0200069
rclavicle -1.66979e-014 -5.40694e-014
rhumerus -49.5383 15.2993 -89.801
rradius 67.7726
rwrist 11.7574
rhand -48.7033 13.1191
rfingers 7.12502
rthumb -21.344 -15.7254
lclavicle -1.66979e-014 -5.40694e-014
lhumerus 9.96975 -52.2441 74.2131
lradius 92.0075
lwrist 30.1395
lhand -33.8432 -1.61572
lfingers 7.12502
lthumb -7.02819 28.2476
rfemur -56.3317 -3.76525 26.3307
rtibia 28.4556
rfoot -3.20715 -8.06649
rtoes 1.50571
lfemur -14.0885 10.2242 -30.2838
ltibia 32.4136
lfoot -18.3639 -1.87174
ltoes -23.3716
362
root 12.1602 16.9884 0.425724 20.5898 -36.8298 2.89716
lowerback 19.8683 -5.52592 5.23908
upperback 14.3878 -6.77442 -2.47233
thorax 3.77751 -3.06684 -4.45603
lowerneck 4.45758 1.99988 1.65187
upperneck -18.8244 3.11896 1.61111
head -6.44894 1.20658 0.0318522
rclavicle -2.14687e-014 1.63003e-014
rhumerus -49.4399 15.2893 -89.8176
rradius 67.516
rwrist 11.7749
rhand -48.6769 12.9748
rfingers 7.12502
rthumb -21.3187 -15.8726
lclavicle -2.14687e-014 1.63003e-014
lhumerus 9.44091 -52.2183 74.735
lradius 91.9253
lwrist 30.0881
lhand -33.8144 -1.61017
lfingers 7.12502
lthumb -7.0004 28.2541
rfemur -56.1442 -3.53274 26.3438
rtibia 28.904
rfoot -3.16644 -7.92521
rtoes 2.4241
lfemur -13.8273 10.1496 -30.0666
ltibia 32.4659
lfoot -17.5141 -1.75665
ltoes -23.4815
363
root 12.0794 17.0105 0.518492 20.7961 -36.9365 2.78901
lowerback 19.8359 -5.49557 5.27116
upperback 14.355 -6.73186 -2.48289
thorax 3.75723 -3.04393 -4.49358
lowerneck 4.44104 2.00518 1.68258
upperneck -18.8404 3.13349 1.63512
head -6.45121 1.20909 0.0335507
rclavicle -1.02573e-013 5.96354e-014
rhumerus -49.2929 15.3961 -89.8079
rradius 67.2761
rwrist 11.7772
rhand -48.6918 12.9266
rfingers 7.12502
rthumb -21.333 -15.9191
lclavicle -1.02573e-013 5.96354e-014
lhumerus 9.04675 -52.1587 75.0918
lradius 91.8152
lwrist 30.1047
lhand -33.941 -1.6315
lfingers 7.12502
lthumb -7.12261 28.2286
rfemur -56.0737 -3.27637 26.3128
rtibia 29.3533
rfoot -3.18694 -7.89126
rtoes 3.00694
lfemur -13.8173 10.042 -29.8588
ltibia 32.7242
lfoot -16.6313 -1.67866
ltoes -23.6336
364
root 12.0016 17.0288 0.593552 21.2576 -36.9332 2.70998
lowerback 19.6053 -5.46894 5.23221
upperback 14.2484 -6.70793 -2.4378
thorax 3.76158 -3.03597 -4.44024
lowerneck 4.43174 2.01377 1.71421
upperneck -18.8653 3.1506 1.64476
head -6.45732 1.21373 0.0302193
rclavicle 6.12257e-014 -1.08139e-013
rhumerus -49.1112 15.5043 -89.8067
rradius 67.0625
rwrist 11.7674
rhand -48.6827 12.9454
rfingers 7.12502
rthumb -21.3242 -15.9013
lclavicle 6.12257e-014 -1.08139e-013
lhumerus 8.72304 -52.0365 75.4373
lradius 91.6292
lwrist 30.117
lhand -33.9715 -1.74539
lfingers 7.12502
lthumb -7.15206 28.1138
rfemur -56.3345 -2.95191 26.2549
rtibia 29.7824
rfoot -3.16482 -7.98677
rtoes 3.59314
lfemur -14.3149 9.93954 -29.6425
ltibia 33.2465
lfoot -15.6791 -1.71609
ltoes -24.0501
365
root 11.9257 17.0468 0.678884 21.4162 -36.9923 2.66344
lowerback 19.5919 -5.45065 5.26667
upperback 14.2397 -6.6801 -2.48473
thorax 3.75318 -3.01777 -4.5151
lowerneck 4.44167 2.01904 1.81091
upperneck -18.9097 3.17282 1.66189
head -6.47234 1.2151 0.0177879
rclavicle -2.3059e-014 2.06736e-014
rhumerus -48.8396 15.4938 -89.8372
rradius 66.8096
rwrist 11.7814
rhand -48.7008 13.0109
rfingers 7.12502
rthumb -21.3416 -15.8339
lclavicle -2.3059e-014 2.06736e-014
lhumerus 8.68107 -51.9563 75.3628
lradius 91.4905
lwrist 30.2376
lhand -34.136 -1.81641
lfingers 7.12502
lthumb -7.31083 28.0373
rfemur -56.2793 -2.65226 26.0835
rtibia 30.2238
rfoot -3.26264 -8.03755
rtoes 4.48418
lfemur -14.5687 9.75095 -29.4812
ltibia 33.9619
lfoot -14.9174 -1.52723
ltoes -23.6783
